<svg xmlns="http://www.w3.org/2000/svg" width="80" height="80" viewBox="0 0 80 80">
  <defs>
    <linearGradient id="rim" x1="0%" y1="0%" x2="100%" y2="100%">
      <stop stop-color="#00baff"/><stop offset=".55" stop-color="#5867ff"/><stop offset="1" stop-color="#8b46ff"/>
    </linearGradient>
    <linearGradient id="gear" x2="0" y2="1">
      <stop stop-color="#00baff"/><stop offset="1" stop-color="#0878ed"/>
    </linearGradient>
  </defs>
  <path d="M10 3h60l7 7v60l-7 7H10l-7-7V10z" fill="#f5f2ff" fill-opacity=".5" stroke="url(#rim)" stroke-width="2.5" stroke-linejoin="round"/>
  <path fill="url(#gear)" fill-rule="evenodd" d="M36 17h8v7l5 2 5-5 6 6-5 5 2 5h7v8h-7l-2 5 5 5-6 6-5-5-5 2v7h-8v-7l-5-2-5 5-6-6 5-5-2-5h-7v-8h7l2-5-5-5 6-6 5 5 5-2z M50 40a10 10 0 1 0-20 0 10 10 0 0 0 20 0z"/>
</svg>
